<svg width="212" height="186" viewBox="0 0 212 186" fill="none" xmlns="http://www.w3.org/2000/svg">
<path
		d="M136 0C136.993 0 137.994 0.00482178 139 0.015625C162.294 0.266541 188.452 4.03155 196 39.5C198.766 52.4999 196.8 73.3364 174 86.5C204.4 93.3 212.5 120 211 136C208.422 163.5 193.5 187 147.5 185C144.708 184.879 141.848 184.826 139 184.813C135.736 184.799 132.489 184.836 129.38 184.881L128.665 184.892L128.312 184.896L128.292 184.897L127.248 184.913C124.31 184.958 121.518 185 119 185H0V0H136ZM130.683 11.2852C127.743 9.56528 124.652 9.94011 122.128 10.3252C113.077 12.1711 106.25 17.8858 99.9258 23.5674C95.331 27.8568 91.1405 32.5501 87.3184 37.5166C81.7532 44.7566 76.7534 52.4433 72.4561 60.5127C68.1472 68.613 64.4722 77.0553 61.6045 85.792C62.8995 76.3001 64.7249 66.901 66.877 57.624C67.9195 53.1351 69.0721 48.6776 70.3594 44.2695C72.4078 37.2588 74.7965 30.3575 77.6436 23.71C78.1654 22.4909 78.1771 21.1205 77.667 19.8965C77.1573 18.6728 76.1667 17.6946 74.9238 17.1826C73.681 16.6711 72.2888 16.6679 71.0654 17.1777C69.8414 17.6876 68.8844 18.6695 68.3965 19.9023C65.5624 27.0571 63.2111 34.3656 61.2646 41.7461C60.0419 46.3861 58.9808 51.0595 58.0732 55.7549C56.1057 65.9501 54.9997 76.2717 54.4414 86.5869C54.2381 90.3704 54.1889 94.1572 54.2158 97.9434C34.5175 99.5376 15.5225 114.347 13.6855 135.535C12.008 158.869 36.0135 175.271 56.8701 175.491C70.7024 176.434 84.5503 173.541 96.9873 167.928C99.9879 166.567 102.903 165.042 105.721 163.351C106.055 163.149 106.307 162.829 106.414 162.451C106.521 162.074 106.476 161.67 106.289 161.328C106.102 160.987 105.786 160.732 105.41 160.619C105.034 160.506 104.629 160.546 104.279 160.72C101.434 162.131 98.527 163.392 95.5664 164.51C83.2992 169.116 70.1279 171.384 57.2236 170.504C37.4778 169.943 17.2729 156.256 18.3145 135.535C19.4439 117.903 36.2422 103.662 54.2607 101.582C54.293 103.313 54.3367 105.044 54.3857 106.774C54.5352 111.977 54.9385 117.185 55.2773 122.379C55.3831 123.998 55.5131 125.633 55.668 127.252L55.8311 128.864L55.8662 129.079C56.3309 131.222 60.0555 130.75 59.8086 128.438C58.8913 119.477 59.6993 110.356 61.5488 101.421C64.0605 101.608 66.5587 102.052 69.0039 102.776C72.0415 103.538 74.9652 104.581 77.8613 105.893C78.2211 106.056 78.6318 106.073 79.0039 105.938C79.376 105.802 79.6796 105.526 79.8477 105.169C80.0156 104.812 80.0355 104.401 79.9023 104.028C79.7691 103.656 79.4934 103.351 79.1387 103.178C76.1303 101.714 73.0616 100.523 69.8379 99.625C67.3755 98.8494 64.8501 98.329 62.2988 98.0488C62.8654 95.6537 63.5005 93.2749 64.1924 90.9199C67.122 81.0473 71.1406 71.5013 75.9863 62.3926C80.1827 54.513 84.9449 46.9253 90.2637 39.7393C93.8831 34.8545 97.8646 30.218 102.24 26.0166C108.174 20.4525 114.947 14.7892 122.585 13.29C124.721 12.9287 126.817 13.7755 127.676 15.0986C128.129 15.8203 128.347 16.7773 128.516 17.8525C128.996 21.1221 127.76 25.0248 126.368 28.6436C124.341 33.8822 120.945 38.7816 116.863 43.0771C116.237 43.7354 115.603 44.3807 114.959 45.0176C109.912 50.0137 104.245 54.4187 98.292 58.6006C93.0001 62.3338 87.6794 66.2446 82.2549 70.1406C79.753 71.8197 82.1475 75.8566 84.8223 74.4697C85.0023 74.3679 85.1855 74.2667 85.3691 74.168C91.9589 70.6506 99.6416 68.7804 107.303 68.5801C125.064 67.6788 144.083 79.2101 143.371 95.6768C143.427 97.753 143.271 99.8301 142.952 101.907C142.452 105.146 141.554 108.406 140.371 111.624C140.893 111.432 141.386 111.258 141.845 111.104L142.016 111.051C142.872 110.818 143.792 110.976 144.524 111.488C145.305 112.035 145.78 112.922 145.803 113.875C145.846 115.683 145.812 118.028 145.559 120.686C145.4 122.353 145.153 124.139 144.789 125.991C144.796 125.978 144.803 125.966 144.81 125.953C148.282 118.95 151.253 111.336 152.209 103.124C152.503 100.529 152.586 97.8645 152.355 95.1387C150.778 71.5323 124.951 63.5303 107.205 64.5811C105.249 64.6353 103.288 64.7554 101.333 64.9541C101.619 64.7761 101.905 64.5976 102.189 64.416C108.525 60.3798 114.71 55.8369 120.292 50.5303C121.005 49.8539 121.708 49.1676 122.404 48.4658C127.134 43.6804 131.272 38.1035 133.833 31.5186C135.559 26.8865 136.325 21.5818 134.517 16.1523C133.865 14.3321 132.623 12.4538 130.683 11.2852ZM68.3428 138.538C60.6592 134.955 52.4023 134.254 45.957 134.491C43.275 134.59 40.9391 134.85 39.1357 135.118C40.0898 136.672 41.3914 138.63 43.04 140.748C47.0013 145.838 52.8458 151.711 60.5293 155.294C68.2131 158.877 76.4697 159.579 82.915 159.342C85.5968 159.243 87.9321 158.982 89.7354 158.714C89.0929 157.668 88.293 156.438 87.3359 155.101C81.9552 152.507 75.4947 148.348 70.832 142.002L70.3848 141.378C69.772 140.503 69.2081 139.608 68.6904 138.702C68.5751 138.647 68.459 138.592 68.3428 138.538ZM162.915 134.491C156.47 134.254 148.213 134.955 140.529 138.538C140.478 138.562 140.427 138.586 140.376 138.61L140.24 138.675C139.705 139.623 139.118 140.557 138.479 141.471C133.786 148.172 127.06 152.511 121.479 155.181C120.547 156.487 119.766 157.689 119.137 158.714C120.94 158.982 123.275 159.243 125.957 159.342C132.402 159.579 140.659 158.877 148.343 155.294C156.026 151.711 161.871 145.838 165.832 140.748C167.481 138.63 168.782 136.672 169.736 135.118C167.933 134.85 165.597 134.59 162.915 134.491ZM104.313 84.8545C104.313 84.8545 88.3135 101.42 88.3135 121.854L88.3252 122.81C88.3441 123.591 88.3852 124.366 88.4482 125.135C88.6452 127.538 89.0495 129.875 89.6035 132.124C90.5462 135.95 91.9248 139.522 93.4658 142.729C94.7486 145.4 96.1439 147.819 97.4932 149.923C101.063 155.49 104.313 158.854 104.313 158.854C104.346 158.82 107.627 155.413 111.209 149.804L111.269 149.71L111.277 149.696C111.329 149.616 111.38 149.535 111.432 149.453L111.498 149.348L111.505 149.337C111.576 149.224 111.647 149.11 111.718 148.995C112.909 147.073 114.119 144.915 115.239 142.565C116.744 139.408 118.089 135.904 119.016 132.154C119.574 129.894 119.98 127.544 120.178 125.128C120.24 124.362 120.283 123.589 120.302 122.81L120.313 121.854C120.313 101.487 104.418 84.9631 104.313 84.8545ZM142.805 113.945C141.183 114.492 139.103 115.284 136.817 116.371C132.317 118.512 127.166 121.729 123.077 126.357C122.126 135.494 118.456 143.585 114.889 149.556C114.747 149.793 114.604 150.027 114.463 150.258C114.361 150.424 114.259 150.59 114.157 150.753C114.072 152.347 114.066 153.77 114.094 154.948C115.577 154.448 117.444 153.744 119.5 152.796C119.569 152.764 119.639 152.732 119.709 152.699L119.84 152.638C119.919 152.6 119.999 152.562 120.079 152.524C122.256 151.489 124.587 150.201 126.875 148.623C129.345 146.92 131.767 144.879 133.896 142.453C134.644 141.6 135.356 140.7 136.021 139.75C136.782 138.664 137.46 137.543 138.064 136.401C140.89 131.065 142.11 125.262 142.572 120.4C142.812 117.881 142.845 115.656 142.805 113.945ZM66.0078 113.995C65.976 115.691 66.0176 117.884 66.2627 120.367C66.744 125.241 67.991 131.071 70.8604 136.428C71.4499 137.528 72.1079 138.609 72.8418 139.657C73.5689 140.696 74.3519 141.675 75.1758 142.598C77.2016 144.866 79.4788 146.794 81.8018 148.419C84.1295 150.048 86.5037 151.374 88.7178 152.437C88.9187 152.533 89.1188 152.627 89.3164 152.719C91.3294 153.655 93.1578 154.354 94.6182 154.854C94.6393 153.728 94.6279 152.381 94.5459 150.876C94.2774 150.447 94.0079 150.007 93.7383 149.556C90.1725 143.587 86.5037 135.5 85.5508 126.366C81.4784 121.764 76.3685 118.555 71.9082 116.414C69.6593 115.335 67.6118 114.545 66.0078 113.995Z"
		fill="#D9C8A9"
	/>
</svg>
